<?xml version="1.0" standalone="no"?>
<!DOCTYPE svg PUBLIC "-//W3C//DTD SVG 20010904//EN"
 "http://www.w3.org/TR/2001/REC-SVG-20010904/DTD/svg10.dtd">
<svg version="1.0" xmlns="http://www.w3.org/2000/svg"
 width="100.000000pt" height="100.000000pt" viewBox="0 0 100.000000 100.000000"
 preserveAspectRatio="xMidYMid meet">

<g transform="translate(0.000000,100.000000) scale(0.100000,-0.100000)"
fill="#000000" stroke="none">
<path d="M388 909 c-17 -9 -18 -41 -18 -449 0 -505 -10 -460 104 -460 87 0 96
10 96 108 1 71 3 80 30 109 16 18 32 33 34 33 2 0 39 -54 81 -120 50 -77 85
-122 99 -126 11 -3 57 -4 101 -2 63 2 80 6 83 19 1 8 -48 93 -109 188 l-112
172 34 37 c19 20 67 71 107 113 43 46 72 85 72 98 0 20 -5 21 -99 21 l-100 0
-108 -119 -108 -119 -5 245 c-4 202 -8 245 -20 253 -20 13 -140 12 -162 -1z"/>
</g>
</svg>
